<svg id="Layer_3" enable-background="new 0 0 64 64" height="512" viewBox="0 0 64 64" width="512" xmlns="http://www.w3.org/2000/svg"><g><g><path d="m44 62h-24v-4c0-1.105.895-2 2-2h20c1.105 0 2 .895 2 2z" fill="#58616c"/></g><g><path d="m39 56h-17c-1.105 0-2 .895-2 2v4h21v-4c0-1.105-.895-2-2-2z" fill="#758190"/></g><g><path d="m24 46h16v10h-16z" fill="#7e848d"/></g><g><path d="m24 46h13v10h-13z" fill="#a8b0bc"/></g><g><path d="m49 46h4v4h-4z" fill="#58616c"/></g><g><path d="m6 2h52c2.209 0 4 1.791 4 4v36c0 2.209-1.791 4-4 4h-52c-2.209 0-4-1.791-4-4v-36c0-2.209 1.791-4 4-4z" fill="#58616c"/></g><g><path d="m59 42v-36c0-2.209-1.791-4-4-4h-49c-2.209 0-4 1.791-4 4v36c0 2.209 1.791 4 4 4h49c2.209 0 4-1.791 4-4z" fill="#758190"/></g><g><path d="m58 2h-52c-2.209 0-4 1.791-4 4v32h60v-32c0-2.209-1.791-4-4-4z" fill="#8bd2f5"/></g><g><path d="m55 2h-49c-2.209 0-4 1.791-4 4v32h57v-32c0-2.209-1.791-4-4-4z" fill="#a2dbf7"/></g><g><path d="m8 6h48v28h-48z" fill="#7e848d"/></g><g><path d="m8 6h45v28h-45z" fill="#a8b0bc"/></g><g><path d="m8 14h48v20h-48z" fill="#dcdfe4"/></g><g><path d="m8 14h45v20h-45z" fill="#eeeff2"/></g><g><g><path d="m18 31h-2c-1.654 0-3-1.346-3-3v-8c0-1.654 1.346-3 3-3h2c1.654 0 3 1.346 3 3v1h-2v-1c0-.552-.448-1-1-1h-2c-.552 0-1 .448-1 1v8c0 .552.448 1 1 1h2c.552 0 1-.448 1-1v-1h2v1c0 1.654-1.346 3-3 3z" fill="#a8b0bc"/></g></g><g><g><path d="m27 31c-2.206 0-4-1.794-4-4v-6c0-2.206 1.794-4 4-4s4 1.794 4 4v6c0 2.206-1.794 4-4 4zm0-12c-1.103 0-2 .897-2 2v6c0 1.103.897 2 2 2s2-.897 2-2v-6c0-1.103-.897-2-2-2z" fill="#a8b0bc"/></g></g><g><g><path d="m38 31h-4c-.553 0-1-.447-1-1v-12c0-.553.447-1 1-1h4c1.654 0 3 1.346 3 3v8c0 1.654-1.346 3-3 3zm-3-2h3c.552 0 1-.448 1-1v-8c0-.552-.448-1-1-1h-3z" fill="#a8b0bc"/></g></g><g><g><path d="m50 31h-6c-.553 0-1-.447-1-1v-12c0-.553.447-1 1-1h6v2h-5v10h5z" fill="#a8b0bc"/></g></g><g><g><path d="m44 23h6v2h-6z" fill="#a8b0bc"/></g></g><g><g><path d="m51 9h2v2h-2z" fill="#fff"/></g></g><g><g><path d="m47 9h2v2h-2z" fill="#fff"/></g></g><g><g><path d="m43 9h2v2h-2z" fill="#fff"/></g></g><g><g><path d="m56 41h2v2h-2z" fill="#fff"/></g></g><g><g><path d="m52 41h2v2h-2z" fill="#fff"/></g></g><g><g><path d="m48 41h2v2h-2z" fill="#fff"/></g></g><g><g><path d="m62 62h-7c-2.757 0-5-2.243-5-5v-7h2v7c0 1.654 1.346 3 3 3h7z" fill="#a8b0bc"/></g></g></g></svg>